<?xml version="1.0" encoding="UTF-8" standalone="no"?>
<!-- Generator: Adobe Illustrator 21.0.2, SVG Export Plug-In . SVG Version: 6.00 Build 0)  -->

<svg
   xmlns:dc="http://purl.org/dc/elements/1.1/"
   xmlns:cc="http://creativecommons.org/ns#"
   xmlns:rdf="http://www.w3.org/1999/02/22-rdf-syntax-ns#"
   xmlns:svg="http://www.w3.org/2000/svg"
   xmlns="http://www.w3.org/2000/svg"
   xmlns:sodipodi="http://sodipodi.sourceforge.net/DTD/sodipodi-0.dtd"
   xmlns:inkscape="http://www.inkscape.org/namespaces/inkscape"
   version="1.1"
   id="Layer_1"
   x="0px"
   y="0px"
   viewBox="0 0 480 480"
   style="enable-background:new 0 0 480 480;"
   xml:space="preserve"
   sodipodi:docname="avatar_forall.svg"
   inkscape:version="0.92.3 (2405546, 2018-03-11)"><metadata
   id="metadata21"><rdf:RDF><cc:Work
       rdf:about=""><dc:format>image/svg+xml</dc:format><dc:type
         rdf:resource="http://purl.org/dc/dcmitype/StillImage" /></cc:Work></rdf:RDF></metadata><defs
   id="defs19" /><sodipodi:namedview
   pagecolor="#ffffff"
   bordercolor="#666666"
   borderopacity="1"
   objecttolerance="10"
   gridtolerance="10"
   guidetolerance="10"
   inkscape:pageopacity="0"
   inkscape:pageshadow="2"
   inkscape:window-width="1519"
   inkscape:window-height="847"
   id="namedview17"
   showgrid="false"
   inkscape:zoom="0.98333333"
   inkscape:cx="177.3783"
   inkscape:cy="280.83678"
   inkscape:window-x="355"
   inkscape:window-y="27"
   inkscape:window-maximized="0"
   inkscape:current-layer="Layer_1" />
<style
   type="text/css"
   id="style2">
	.st0{fill:#FFFFFF;}
	.st1{fill:#0C7F99;}
</style>
<path
   class="st0"
   d="m 223.23388,155.64403 c 0,6.62841 -2.39346,12.94118 -6.32559,17.83357 l -51.97254,0.47346 c -4.44502,-4.8924 -6.83848,-11.5208 -6.83848,-18.30703 0,-16.57102 14.53178,-29.98565 32.48283,-29.98565 18.12199,-0.15783 32.65378,13.41463 32.65378,29.98565 z"
   id="path4"
   style="fill:#ffffff;stroke-width:1.64259374"
   inkscape:connector-curvature="0" />
<path
   class="st0"
   d="m 317.26314,155.64403 c 0,6.62841 -2.39347,12.94118 -6.32561,17.83357 l -51.97254,0.47346 c -4.44501,-4.8924 -6.83848,-11.5208 -6.83848,-18.30703 0,-16.57102 14.53179,-29.98565 32.48284,-29.98565 18.122,-0.15783 32.65379,13.41463 32.65379,29.98565 z"
   id="path6"
   style="fill:#ffffff;stroke-width:1.64259374"
   inkscape:connector-curvature="0" />
<path
   d="m 199.98302,132.12897 c -2.22251,0.15782 -3.93213,1.736 -3.93213,3.78765 0,2.05165 1.88058,3.78766 4.10309,3.78766 2.22251,0 4.1031,-1.73601 4.1031,-3.78766 0,-2.05165 -1.88059,-3.78765 -4.1031,-3.78765 0,0 -0.17096,0 -0.17096,0 l 4.95791,-1.57821 c 7.35139,0 13.1641,5.52367 13.1641,12.15209 0,6.6284 -5.98368,12.15208 -13.1641,12.15208 -7.18042,0 -13.16411,-5.52368 -13.16411,-12.15208 0,-6.62842 5.98369,-12.15209 13.16411,-12.15209"
   id="path8"
   inkscape:connector-curvature="0"
   style="stroke-width:1.64259374" />
<path
   d="m 294.01227,132.12897 c -2.22252,0.15782 -3.93214,1.736 -3.93214,3.78765 0,2.05165 1.88059,3.78766 4.10312,3.78766 2.2225,0 4.10308,-1.73601 4.10308,-3.78766 0,-2.05165 -1.88058,-3.78765 -4.10308,-3.78765 0,0 -0.17098,0 -0.17098,0 l 4.9579,-1.57821 c 7.35138,0 13.16411,5.52367 13.16411,12.15209 0,6.6284 -5.98367,12.15208 -13.16411,12.15208 -7.18042,0 -13.16409,-5.52368 -13.16409,-12.15208 0,-6.62842 5.98367,-12.15209 13.16409,-12.15209"
   id="path10"
   inkscape:connector-curvature="0"
   style="stroke-width:1.64259374" />
<path
   class="st1"
   d="m 399.36871,48.533048 c 2.78834,-6.682828 2.78834,-7.637516 2.78834,-10.501585 0,-5.728139 -4.64725,-12.410966 -12.08281,-12.410966 -7.43558,0 -11.15337,7.637517 -13.9417,14.320345 L 326.87185,173.59739 H 146.55914 L 97.298452,39.940842 C 94.510114,31.348635 91.721776,25.620497 84.286201,25.620497 c -6.506128,0 -12.08281,6.682827 -12.08281,12.410966 0,0.954689 0,2.864069 3.717787,10.501585 L 223.70323,447.59331 c 2.78835,8.59221 5.57669,14.32035 13.01226,14.32035 8.36503,0 11.15337,-6.68282 13.01225,-12.41098 z M 156.78307,198.41932 h 160.7943 l -80.86188,216.71454 z m 0,0"
   id="path12"
   inkscape:connector-curvature="0"
   style="fill:#50c878;stroke-width:60.2869606;fill-opacity:1" />

<path
   d="m 209.21183,190.61183 c 11.10356,0 3.83578,0.15781 27.25422,0 20.79393,-0.15782 25.03349,-0.15782 31.69562,-0.31563 0,0 -0.60564,-4.89241 -0.60564,-4.89241 -7.46968,0.15783 -18.77512,0.31564 -29.67681,0.31564 -7.87343,0 -17.16004,0 -29.47492,0"
   id="path14"
   inkscape:connector-curvature="0"
   style="stroke-width:1.78496587" />
</svg>