<?xml version="1.0" encoding="UTF-8" standalone="no"?>
<!-- Generator: Adobe Illustrator 21.0.2, SVG Export Plug-In . SVG Version: 6.00 Build 0)  -->

<svg
   xmlns:dc="http://purl.org/dc/elements/1.1/"
   xmlns:cc="http://creativecommons.org/ns#"
   xmlns:rdf="http://www.w3.org/1999/02/22-rdf-syntax-ns#"
   xmlns:svg="http://www.w3.org/2000/svg"
   xmlns="http://www.w3.org/2000/svg"
   xmlns:sodipodi="http://sodipodi.sourceforge.net/DTD/sodipodi-0.dtd"
   xmlns:inkscape="http://www.inkscape.org/namespaces/inkscape"
   version="1.1"
   id="Layer_1"
   x="0px"
   y="0px"
   viewBox="0 0 480 480"
   style="enable-background:new 0 0 480 480;"
   xml:space="preserve"
   sodipodi:docname="avatar_forall2.svg"
   inkscape:version="0.92.3 (2405546, 2018-03-11)"><metadata
   id="metadata21"><rdf:RDF><cc:Work
       rdf:about=""><dc:format>image/svg+xml</dc:format><dc:type
         rdf:resource="http://purl.org/dc/dcmitype/StillImage" /><dc:title /></cc:Work></rdf:RDF></metadata><defs
   id="defs19" /><sodipodi:namedview
   pagecolor="#ffffff"
   bordercolor="#666666"
   borderopacity="1"
   objecttolerance="10"
   gridtolerance="10"
   guidetolerance="10"
   inkscape:pageopacity="0"
   inkscape:pageshadow="2"
   inkscape:window-width="1519"
   inkscape:window-height="847"
   id="namedview17"
   showgrid="false"
   inkscape:zoom="0.98333333"
   inkscape:cx="270.77158"
   inkscape:cy="204.56559"
   inkscape:window-x="208"
   inkscape:window-y="159"
   inkscape:window-maximized="0"
   inkscape:current-layer="Layer_1" />
<style
   type="text/css"
   id="style2">
	.st0{fill:#FFFFFF;}
	.st1{fill:#0C7F99;}
</style>
<path
   class="st0"
   d="m 224.04813,197.98804 c 0,5.56235 -2.2828,10.85983 -6.03315,14.96537 l -49.56977,0.39732 c -4.23952,-4.10555 -6.52233,-9.6679 -6.52233,-15.36269 0,-13.90588 13.85995,-25.16302 30.9811,-25.16302 17.28419,-0.13245 31.14415,11.25714 31.14415,25.16302 z"
   id="path4"
   style="fill:#ffffff;stroke-width:1.46952295"
   inkscape:connector-curvature="0" />
<path
   class="st0"
   d="m 313.73028,197.98804 c 0,5.56235 -2.28282,10.85983 -6.03317,14.96537 l -49.56977,0.39732 c -4.23951,-4.10555 -6.52232,-9.6679 -6.52232,-15.36269 0,-13.90588 13.85996,-25.16302 30.9811,-25.16302 17.28419,-0.13245 31.14416,11.25714 31.14416,25.16302 z"
   id="path6"
   style="fill:#ffffff;stroke-width:1.46952295"
   inkscape:connector-curvature="0" />
<path
   d="m 201.87219,178.25493 c -2.11976,0.13244 -3.75034,1.4568 -3.75034,3.17848 0,1.72168 1.79364,3.17849 3.9134,3.17849 2.11976,0 3.91341,-1.45681 3.91341,-3.17849 0,-1.72168 -1.79365,-3.17848 -3.91341,-3.17848 0,0 -0.16306,0 -0.16306,0 l 4.7287,-1.32438 c 7.01153,0 12.55551,4.63529 12.55551,10.19765 0,5.56235 -5.70705,10.19765 -12.55551,10.19765 -6.84846,0 -12.55551,-4.6353 -12.55551,-10.19765 0,-5.56236 5.70705,-10.19765 12.55551,-10.19765"
   id="path8"
   inkscape:connector-curvature="0"
   style="stroke-width:1.46952295" />
<path
   d="m 291.55433,178.25493 c -2.11977,0.13244 -3.75035,1.4568 -3.75035,3.17848 0,1.72168 1.79365,3.17849 3.91342,3.17849 2.11976,0 3.91339,-1.45681 3.91339,-3.17849 0,-1.72168 -1.79363,-3.17848 -3.91339,-3.17848 0,0 -0.16307,0 -0.16307,0 l 4.72869,-1.32438 c 7.01151,0 12.55551,4.63529 12.55551,10.19765 0,5.56235 -5.70703,10.19765 -12.55551,10.19765 -6.84846,0 -12.5555,-4.6353 -12.5555,-10.19765 0,-5.56236 5.70704,-10.19765 12.5555,-10.19765"
   id="path10"
   inkscape:connector-curvature="0"
   style="stroke-width:1.46952295" />
<path
   class="st1"
   d="m 392.03999,108.10383 c 2.65943,-5.60802 2.65943,-6.40917 2.65943,-8.812608 0,-4.80687 -4.43239,-10.414888 -11.52421,-10.414888 -7.09181,0 -10.63772,6.409158 -13.29714,12.017186 l -46.9833,112.16042 H 150.91817 L 103.93488,100.89352 C 101.27545,93.683202 98.61602,88.876334 91.524204,88.876334 85.318864,88.876334 80,94.484352 80,99.291222 c 0,0.801158 0,2.403438 3.545909,8.812608 L 224.49578,442.9828 c 2.65944,7.21032 5.31888,12.0172 12.41069,12.0172 7.9783,0 10.63773,-5.60802 12.41067,-10.41491 z m -231.37055,125.7799 h 153.36054 l -77.12351,181.86011 z m 0,0"
   id="path12"
   inkscape:connector-curvature="0"
   style="fill:#45bb7d;fill-opacity:1;stroke-width:53.93486404" />

<path
   d="m 210.67434,227.33193 c 10.59023,0 3.65845,0.13243 25.99421,0 19.8326,-0.13244 23.87617,-0.13244 30.23029,-0.26487 0,0 -0.57764,-4.10556 -0.57764,-4.10556 -7.12434,0.13245 -17.90711,0.26488 -28.3048,0.26488 -7.50943,0 -16.36671,0 -28.11225,0"
   id="path14"
   inkscape:connector-curvature="0"
   style="stroke-width:1.59689403" />
</svg>