<?xml version="1.0" encoding="utf-8"?>
<svg id="master-artboard" viewBox="0 0 300 300" version="1.1" xmlns="http://www.w3.org/2000/svg" x="0px" y="0px" style="enable-background:new 0 0 1400 980;" width="300px" height="300px" xmlns:xlink="http://www.w3.org/1999/xlink"><defs><style id="ee-google-fonts">@import url(https://fonts.googleapis.com/css?family=Anton:400|Roboto+Slab:100,300,400,700);</style><path id="text-path-0" d="M 778.8464965820312 213.4612274169922 A 100 18 0 0 1 988.3533935546875 213.4612274169922 A 100 18 0 0 1 778.8464965820312 213.4612274169922 Z" style="fill: none; stroke: red; stroke-width: 2;"/><path id="text-path-1" d="M 664.5464477539062 37.96122741699219 A 100 19 0 0 1 876.5812377929688 37.96122741699219 A 100 19 0 0 1 664.5464477539062 37.96122741699219" style="fill: none; stroke: red; stroke-width: 2;"/><path id="text-path-2" d="M 765.3650512695312 211.70851135253906 A 100 17 0 0 1 991.5017700195312 211.70851135253906 A 100 17 0 0 1 765.3650512695312 211.70851135253906" style="fill: none; stroke: red; stroke-width: 2;"/><path id="path-1" d="M 765.3650512695312 211.70851135253906 A 100 17 0 0 1 991.5017700195312 211.70851135253906 A 100 17 0 0 1 765.3650512695312 211.70851135253906" style="fill: none; stroke: red; stroke-width: 2;"/><clipPath id="clip-path"><path d="M 200.75999450683594 95.86000061035156 L 136.2899932861328 59.02000045776367 L 136.2899932861328 210 L 162.0500030517578 195.0399932861328 L 162.0500030517578 152.57000732421875 L 181.5 163.82000732421875 L 181.38999938964844 134.77000427246094 L 162.0500030517578 123.72000122070312 L 162.0500030517578 106.8499984741211 L 200.85000610351562 129.27000427246094 L 200.75999450683594 95.86000061035156 Z" class="cls-1" style="fill: none;"/></clipPath><linearGradient id="linear-gradient" x1="60.08" y1="134.33" x2="218.39" y2="134.33" gradientUnits="userSpaceOnUse"><stop offset="0" stop-color="#ff6f00"/><stop offset="1" stop-color="#ffa800"/></linearGradient><clipPath id="clip-path-2"><path d="M 66.02999877929688 95.86000061035156 L 130.5 59.02000045776367 L 130.5 210 L 104.73999786376953 195.0399932861328 L 104.73999786376953 106.8499984741211 L 65.94000244140625 129.27000427246094 L 66.02999877929688 95.86000061035156 Z" class="cls-1" style="fill: none;"/></clipPath><linearGradient id="linear-gradient-2" x1="59" y1="134.33" x2="217.32" y2="134.33" xlink:href="#linear-gradient"/><clipPath id="path-2"><path d="M 200.75999450683594 95.86000061035156 L 136.2899932861328 59.02000045776367 L 136.2899932861328 210 L 162.0500030517578 195.0399932861328 L 162.0500030517578 152.57000732421875 L 181.5 163.82000732421875 L 181.38999938964844 134.77000427246094 L 162.0500030517578 123.72000122070312 L 162.0500030517578 106.8499984741211 L 200.85000610351562 129.27000427246094 L 200.75999450683594 95.86000061035156 Z" class="cls-1" style="fill: none;"/></clipPath><linearGradient id="gradient-1" x1="60.08" y1="134.33" x2="218.39" y2="134.33" gradientUnits="userSpaceOnUse"><stop offset="0" stop-color="#ff6f00"/><stop offset="1" stop-color="#ffa800"/></linearGradient><clipPath id="path-3"><path d="M 66.02999877929688 95.86000061035156 L 130.5 59.02000045776367 L 130.5 210 L 104.73999786376953 195.0399932861328 L 104.73999786376953 106.8499984741211 L 65.94000244140625 129.27000427246094 L 66.02999877929688 95.86000061035156 Z" class="cls-1" style="fill: none;"/></clipPath><linearGradient id="gradient-2" x1="59" y1="134.33" x2="217.32" y2="134.33" xlink:href="#gradient-1"/></defs><rect id="ee-background" x="0" y="0" width="300" height="300" style="fill: white; fill-opacity: 1; pointer-events: none;"/>


<g transform="matrix(1.858597993850708, 0, 0, 1.858597993850708, -96.19595744161649, -101.99999866543749)"><title>FullColorPrimary Icon</title><g class="cls-2" style="clip-path: url('#path-2');"><path d="M 60.080002 58.470001 H 218.389999 V 210.190002 H 60.080002 V 58.470001 Z" class="cls-3" style="fill: url('#gradient-1');"/></g><g class="cls-4" style="clip-path: url('#path-3');"><path d="M 59 58.470001 H 217.309998 V 210.190002 H 59 V 58.470001 Z" class="cls-5" style="fill: url('#gradient-2');"/></g></g></svg>